<svg width="567" height="166" xmlns="http://www.w3.org/2000/svg" xmlns:xlink="http://www.w3.org/1999/xlink" xml:space="preserve" overflow="hidden"><defs><clipPath id="clip0"><rect x="359" y="289" width="567" height="166"/></clipPath></defs><g clip-path="url(#clip0)" transform="translate(-359 -289)"><path d="M78.9317 455.375C78.9317 455.375 83.9914 419.957 128.517 419.957 128.517 419.957 95.6288 375.937 142.684 335.966 142.684 335.966 179.62 307.125 217.568 335.966 217.568 335.966 246.408 270.695 324.328 290.934 324.328 290.934 379.985 305.101 385.045 368.348 385.045 368.348 399.212 366.83 420.969 369.866 420.969 369.866 452.339 284.356 540.378 316.739 540.378 316.739 609.191 342.543 589.458 422.993 589.458 422.993 629.43 414.391 644.103 455.375L644.103 455.375 78.9317 457.399" fill="#928788" transform="matrix(1.00456 0 0 1 279.62 1.49041)"/></g></svg>