<?xml version="1.0" standalone="no"?>
<!DOCTYPE svg PUBLIC "-//W3C//DTD SVG 1.0//EN" "http://www.w3.org/TR/2001/REC-SVG-20010904/DTD/svg10.dtd">
<svg xmlns="http://www.w3.org/2000/svg" xmlns:xlink="http://www.w3.org/1999/xlink" id="body_1" width="1417" height="1417">

<g transform="matrix(0.9997742 0 0 0.9997742 0 0)">
	<g>
        <path d="M1110.669 358.089C 1110.669 375.4462 1104.5322 390.26147 1092.2589 402.53488C 1079.9855 414.8083 1065.1702 420.945 1047.813 420.94498C 1030.4558 420.945 1015.6405 414.8083 1003.36707 402.53488C 991.0937 390.26147 984.95703 375.4462 984.957 358.089C 984.95703 340.7318 991.0937 325.9165 1003.36707 313.6431C 1015.6405 301.3697 1030.4558 295.233 1047.813 295.233C 1065.1702 295.233 1079.9855 301.3697 1092.2589 313.6431C 1104.5322 325.9165 1110.669 340.7318 1110.669 358.089C 1110.669 358.82043 1110.6562 359.55164 1110.6307 360.28262" stroke="none" fill="#F8B9B2" fill-rule="nonzero" />
        <path d="M698.601 1162.263C 698.601 1140.7205 823.83636 1123.257 978.322 1123.257C 1132.8076 1123.257 1258.043 1140.7205 1258.043 1162.263C 1258.043 1183.8054 1132.8076 1201.2689 978.322 1201.2689C 823.83636 1201.2689 698.601 1183.8054 698.601 1162.263" stroke="none" fill="#E6E6E6" fill-rule="nonzero" />
        <path d="M1127.48 1098.257L1156.98 1087.757L1156.98 1131.257L1127.48 1136.257L1127.48 1098.257" stroke="none" fill="#FEB5B7" fill-rule="nonzero" />
        <path d="M855.48 1084.257L855.48 1134.257L883.98 1134.257L883.98 1092.757L855.48 1084.257" stroke="none" fill="#FEB5B7" fill-rule="nonzero" />
        <path d="M787.73 563.007L790.73 591.007C 790.73 591.007 767.48 593.257 761.48 596.757C 761.48 596.757 730.48 609.507 728.23 586.757C 728.23 586.757 722.98 536.757 762.48 558.757C 762.48 558.757 770.48 564.257 787.73 563.007z" stroke="none" fill="#FEB5B7" fill-rule="nonzero" />
		<text transform="matrix(1 0 0 1 159.2769 459.6543)" x="0" y="0" style="fill:#683B8C;font-family:ABeeZee;" font-size="203.1114">

		</text>
		<text transform="matrix(1 0 0 1 159.2769 459.6543)" x="0" y="0" style="fill:#683B8C;font-family:ABeeZee;" font-size="203.1114">
Pay
		</text>
		<text transform="matrix(1 0 0 1 159.2769 459.6543)" x="304.664" y="0" style="fill:#000000;font-family:ABeeZee;" font-size="203.1114">

		</text>
		<text transform="matrix(1 0 0 1 159.2769 459.6543)" x="304.664" y="0" style="fill:#000000;font-family:ABeeZee;" font-size="203.1114">
Bills
		</text>
        <path d="M1097.48 328.257L1097.48 354.757L1001.98 354.757L1001.98 325.757C 1001.98 325.757 964.48 377.257 1025.48 415.757C 1025.48 415.757 992.48 426.757 972.98 362.757C 972.98 362.757 962.48 268.257 1062.48 275.757L1062.48 275.757L1062.98 267.757C 1062.98 267.757 1044.48 246.76 1065.48 225.42699C 1065.48 225.42699 1080.478 211.75998 1102.812 217.42699C 1102.812 217.42699 1065.146 228.42699 1068.48 249.094C 1068.48 249.094 1071.146 251.42699 1074.48 244.427C 1074.48 244.427 1082.146 230.427 1110.48 239.094C 1110.48 239.094 1136.478 250.427 1127.812 276.76C 1127.812 276.76 1123.146 294.09302 1106.812 298.09302C 1106.812 298.09302 1103.48 300.759 1109.146 303.759C 1109.146 303.759 1136.683 325.092 1129.582 366.092C 1129.582 366.092 1116.8141 417.198 1071.146 416.479C 1071.146 416.479 1106.146 392.425 1105.48 363.758C 1105.48 363.756 1107.48 332.758 1097.48 328.257z" stroke="none" fill="#2E2E42" fill-rule="nonzero" />
        <path d="M998.98 454.757C 998.98 454.757 1055.48 414.257 1104.98 446.257C 1104.98 446.257 1152.48 480.757 1179.48 533.75696C 1179.48 533.75696 1191.98 558.25696 1169.48 575.75696C 1169.48 575.75696 1096.98 642.25696 1073.48 638.75696C 1073.48 638.75696 1071.48 618.75696 1041.98 620.75696C 1041.98 620.75696 1025.98 621.52496 1014.98 638.8909C 1014.98 638.8909 970.98 651.75696 957.48 606.75696C 957.48 606.75696 970.355 590.88196 971.605 576.88196C 971.605 576.88196 972.605 570.50696 966.48 567.25696C 966.48 567.25696 957.105 563.25696 957.48 553.00696C 957.48 553.00696 958.605 545.88196 951.48 552.75696C 951.48 552.75696 923.48 576.08997 882.146 581.08997C 882.146 581.08997 796.478 595.42395 783.812 595.42395C 783.812 595.42395 779.812 585.4249 781.48004 554.42395C 781.48004 554.42395 870.14606 529.42395 893.14606 523.42395C 893.14606 523.42395 927.8141 514.7739 946.14606 499.43295C 946.146 499.432 990.012 460.237 998.98 454.757z" stroke="none" fill="#CCCCCC" fill-rule="nonzero" />
        <path d="M1125.812 559.759C 1125.812 561.78394 1125.0962 563.5123 1123.6642 564.9442C 1122.2324 566.3761 1120.504 567.09204 1118.479 567.092C 1116.4541 567.09204 1114.7256 566.3761 1113.2938 564.9442C 1111.862 563.5123 1111.146 561.78394 1111.146 559.759C 1111.146 557.734 1111.862 556.0056 1113.2938 554.5737C 1114.7256 553.1419 1116.4541 552.426 1118.479 552.42596C 1120.504 552.426 1122.2324 553.1419 1123.6642 554.5737C 1125.0962 556.0056 1125.812 557.734 1125.812 559.759C 1125.812 559.84436 1125.8105 559.9296 1125.8075 560.0149" stroke="none" fill="#FFFFFF" fill-rule="nonzero" />
        <path d="M958.813 606.093C 958.813 606.093 957.147 652.761 1081.147 633.427C 1081.147 633.427 1141.049 718.83704 1172.547 1086.321C 1172.547 1086.321 1166.074 1096.822 1125.813 1104.322C 1125.813 1104.322 1040.481 892.75806 1000.48096 797.75806C 1000.48096 797.75806 992.48096 782.75806 988.48096 798.75806C 988.48096 798.75806 914.48096 1042.758 888.48096 1096.758C 888.48096 1096.758 858.48096 1097.758 836.48096 1078.758C 836.48096 1078.758 835.48096 1019.75806 846.48096 956.75806C 846.48 956.757 917.48 682.757 958.813 606.093z" stroke="none" fill="#2E2E40" fill-rule="nonzero" />
        <path d="M1013.73 636.507C 1013.73 636.507 1025.73 614.007 1053.98 618.507C 1053.98 618.507 1069.48 620.507 1075.23 636.507C 1075.23 636.507 1057.48 680.007 1028.98 667.757C 1028.98 667.757 1012.23 665.507 1013.73 636.507z" stroke="none" fill="#FEB5B7" fill-rule="nonzero" />
        <path d="M1166.48 1123.757L1166.48 1161.257L1080.98 1161.257C 1080.98 1161.257 1072.48 1138.757 1110.98 1123.757L1110.98 1123.757L1166.48 1123.757z" stroke="none" fill="#2E2E40" fill-rule="nonzero" />
        <path d="M890.16 1123.757L890.16 1161.257L804.66 1161.257C 804.66 1161.257 796.16 1138.757 834.66 1123.757L834.66 1123.757L890.16 1123.757z" stroke="none" fill="#2E2E40" fill-rule="nonzero" />
	</g>
</g>
</svg>