<svg width="455" height="581" xmlns="http://www.w3.org/2000/svg" xmlns:xlink="http://www.w3.org/1999/xlink" xml:space="preserve" overflow="hidden"><defs><clipPath id="clip0"><rect x="413" y="68" width="455" height="581"/></clipPath></defs><g clip-path="url(#clip0)" transform="translate(-413 -68)"><path d="M325.451 651.123 548.3 651.123C548.3 651.123 595.867 592.478 586.093 499.299 586.093 499.299 577.622 427.622 508.552 379.404 508.552 379.404 457.727 347.475 466.849 291.437 466.849 291.437 488.352 226.927 440.133 214.547 440.133 214.547 402.992 209.986 390.611 167.631 390.611 167.631 358.03 67.9353 278.534 68.5872 278.534 68.5872 230.315 63.3741 249.212 120.064 249.212 120.064 259.638 140.916 267.457 174.799 267.457 174.799 279.404 208.248 257.683 249.082 257.683 249.082 224.669 303.816 266.806 359.792 266.806 359.792 286.353 383.313 315.025 398.3 315.025 398.3 386.702 430.881 362.592 509.725 362.592 509.725 354.121 524.712 344.998 505.816 344.998 505.816 292.218 406.646 163.2 359.793 163.2 359.793 128.013 348.779 132.575 376.798 132.575 376.798 135.832 406.772 147.562 427.623 147.562 427.623 159.291 458.248 158.639 476.493 158.639 476.493 146.91 546.215 221.193 557.944 221.193 557.944 262.244 562.505 266.154 597.04 266.154 597.04 264.199 638.744 304.598 641.35 304.599 641.349 322.844 646.561 325.451 651.123Z" fill="#A99F9F" transform="matrix(1 0 0 1.00166 279.985 -0.438163)"/><path d="M479.23 651.123 479.23 618.543C479.23 618.543 480.533 580.098 486.397 548.17 486.397 548.17 497.677 502.78 522.887 459.551 522.887 459.551 526.145 453.035 522.887 451.08 522.887 451.08 518.978 449.777 513.765 458.899 513.765 458.899 475.755 522.318 473.148 581.831 473.148 581.831 454.469 451.732 420.585 372.887 420.585 372.887 405.272 340.737 434.269 258.856 434.269 258.856 437.527 252.123 433.618 249.516 433.618 249.516 420.586 239.96 406.684 333.791 406.684 333.791 360.637 198.908 293.521 91.3929 293.521 91.3929 289.937 87.4831 287.331 91.3929 287.331 91.3929 284.073 95.3028 291.567 106.054 291.567 106.054 336.528 189.134 345.324 211.289 345.324 211.289 324.473 185.224 304.924 168.609 304.924 168.609 299.06 162.093 295.15 166.979 295.15 166.979 289.612 171.541 299.386 180.663 299.386 180.663 346.736 212.351 369.76 267.955 369.76 267.955 406.25 350.296 420.151 407.203 420.151 407.203 368.89 344.649 304.598 316.847 304.598 316.847 296.345 312.938 293.739 317.282 293.739 317.282 291.132 323.363 299.82 326.839 299.82 326.839 363.238 359.246 405.48 407.636 405.48 407.636 430.576 434.57 441.871 478.009 441.871 478.009 465.546 567.717 467.5 651.122L467.5 651.122 479.23 651.122 479.23 651.123Z" fill="#FFFFFF" transform="matrix(1 0 0 1.00166 279.985 -0.438163)"/><path d="M456.098 651.123C456.098 651.123 436.224 617.891 389.634 579.772 389.634 579.772 385.073 577.166 382.467 579.772 382.467 579.772 379.209 583.682 385.073 587.917 385.073 587.917 422.541 616.588 446.976 651.123L446.976 651.123 456.098 651.123 456.098 651.123Z" fill="#FFFFFF" transform="matrix(1 0 0 1.00166 279.985 -0.438163)"/></g></svg>