<svg width="374" height="516" xmlns="http://www.w3.org/2000/svg" xmlns:xlink="http://www.w3.org/1999/xlink" xml:space="preserve" overflow="hidden"><defs><clipPath id="clip0"><rect x="454" y="102" width="374" height="516"/></clipPath></defs><g clip-path="url(#clip0)" transform="translate(-454 -102)"><path d="M172.072 610.839 185.778 234.698C185.778 234.698 205.574 161.601 248.213 170.738 248.213 170.738 309.888 187.49 345.675 152.464 345.675 152.464 406.588 84.6978 502.526 106.018 502.526 106.018 523.084 109.825 542.12 131.145 542.12 131.145 558.11 150.942 534.506 173.023 534.506 173.023 497.196 206.525 471.308 235.459 471.308 235.459 440.851 270.484 437.806 300.941 437.806 300.941 437.044 364.901 398.974 400.687 398.974 400.687 481.206 398.403 510.902 418.2 510.902 418.2 527.653 430.383 512.424 449.418 512.424 449.418 499.481 465.408 472.831 486.727 472.831 486.727 433.999 518.707 413.44 551.448 413.44 551.448 376.893 606.27 311.411 576.575 311.411 576.575 263.441 552.97 236.031 596.371 236.031 596.371 216.995 632.158 172.072 610.839Z" fill="#A99F9F" transform="matrix(1.00119 0 0 1 280.103 0.257676)"/><path d="M181.061 364.133 309.724 263.881C309.724 263.881 372.326 219.469 439.331 214.901 439.331 214.901 444.962 214.592 444.624 211.546 444.624 211.546 445.978 206.808 435.825 207.485 435.825 207.485 389.123 210.192 353.588 229.821 353.588 229.821 454.608 160.275 496.742 137.939 496.742 137.939 503.595 134.132 501.057 130.07 501.057 130.07 499.534 126.517 492.935 130.07 492.935 130.07 296.945 249.164 215.473 326.829 215.473 326.829 242.923 283.631 249.353 215.946 249.353 215.946 250.03 210.193 246.646 209.854 246.646 209.854 242.585 207.485 242.585 219.668 242.585 219.668 234.941 314.089 181.062 355.377L181.062 355.377 181.062 364.133 181.061 364.133Z" fill="#FFFFFF" transform="matrix(1.00119 0 0 1 280.103 0.257676)"/><path d="M180.018 392.756C180.018 392.756 257.819 361.093 341.34 371.752 341.34 371.752 353.591 375.005 352.234 369.559 352.234 369.559 352.37 364.133 324.483 362.146 324.483 362.146 248.34 355.716 180.295 385.158L180.295 385.158 180.018 392.756Z" fill="#FFFFFF" transform="matrix(1.00119 0 0 1 280.103 0.257676)"/></g></svg>